<?xml version="1.0" encoding="UTF-8" standalone="no"?>
<!DOCTYPE svg PUBLIC "-//W3C//DTD SVG 1.1//EN"
 "http://www.w3.org/Graphics/SVG/1.1/DTD/svg11.dtd">
<!-- Generated by graphviz version 14.1.1 (20251213.1925)
 -->
<!-- Title: MLP Pages: 1 -->
<svg width="208pt" height="1171pt"
 viewBox="0.00 0.00 208.00 1171.00" xmlns="http://www.w3.org/2000/svg" xmlns:xlink="http://www.w3.org/1999/xlink">
<g id="graph0" class="graph" transform="scale(1 1) rotate(0) translate(4 1166.5)">
<title>MLP</title>
<polygon fill="white" stroke="none" points="-4,4 -4,-1166.5 204,-1166.5 204,4 -4,4"/>
<g id="clust1" class="cluster">
<title>cluster_2</title>
<polygon fill="none" stroke="black" stroke-dasharray="5,2" points="8,-8 8,-1119 192,-1119 192,-8 8,-8"/>
<text xml:space="preserve" text-anchor="middle" x="40.75" y="-1103.6" font-family="Times New Roman,serif" font-size="12.00">Sequential</text>
</g>
<g id="clust2" class="cluster">
<title>cluster_3</title>
<polygon fill="none" stroke="black" stroke-dasharray="5,2" points="25,-1005 25,-1088.75 175,-1088.75 175,-1005 25,-1005"/>
<text xml:space="preserve" text-anchor="middle" x="48.38" y="-1073.35" font-family="Times New Roman,serif" font-size="12.00">Linear</text>
</g>
<g id="clust3" class="cluster">
<title>cluster_4</title>
<polygon fill="none" stroke="black" stroke-dasharray="5,2" points="25,-913.25 25,-997 175,-997 175,-913.25 25,-913.25"/>
<text xml:space="preserve" text-anchor="middle" x="48" y="-981.6" font-family="Times New Roman,serif" font-size="12.00">ReLU</text>
</g>
<g id="clust4" class="cluster">
<title>cluster_5</title>
<polygon fill="none" stroke="black" stroke-dasharray="5,2" points="16,-821.5 16,-905.25 184,-905.25 184,-821.5 16,-821.5"/>
<text xml:space="preserve" text-anchor="middle" x="57.75" y="-889.85" font-family="Times New Roman,serif" font-size="12.00">BatchNorm1d</text>
</g>
<g id="clust5" class="cluster">
<title>cluster_6</title>
<polygon fill="none" stroke="black" stroke-dasharray="5,2" points="25,-729.75 25,-813.5 175,-813.5 175,-729.75 25,-729.75"/>
<text xml:space="preserve" text-anchor="middle" x="48.38" y="-798.1" font-family="Times New Roman,serif" font-size="12.00">Linear</text>
</g>
<g id="clust6" class="cluster">
<title>cluster_7</title>
<polygon fill="none" stroke="black" stroke-dasharray="5,2" points="25,-638 25,-721.75 175,-721.75 175,-638 25,-638"/>
<text xml:space="preserve" text-anchor="middle" x="52.88" y="-706.35" font-family="Times New Roman,serif" font-size="12.00">Dropout</text>
</g>
<g id="clust7" class="cluster">
<title>cluster_8</title>
<polygon fill="none" stroke="black" stroke-dasharray="5,2" points="25,-546.25 25,-630 175,-630 175,-546.25 25,-546.25"/>
<text xml:space="preserve" text-anchor="middle" x="48" y="-614.6" font-family="Times New Roman,serif" font-size="12.00">ReLU</text>
</g>
<g id="clust8" class="cluster">
<title>cluster_9</title>
<polygon fill="none" stroke="black" stroke-dasharray="5,2" points="16,-454.5 16,-538.25 184,-538.25 184,-454.5 16,-454.5"/>
<text xml:space="preserve" text-anchor="middle" x="57.75" y="-522.85" font-family="Times New Roman,serif" font-size="12.00">BatchNorm1d</text>
</g>
<g id="clust9" class="cluster">
<title>cluster_10</title>
<polygon fill="none" stroke="black" stroke-dasharray="5,2" points="25,-362.75 25,-446.5 175,-446.5 175,-362.75 25,-362.75"/>
<text xml:space="preserve" text-anchor="middle" x="48.38" y="-431.1" font-family="Times New Roman,serif" font-size="12.00">Linear</text>
</g>
<g id="clust10" class="cluster">
<title>cluster_11</title>
<polygon fill="none" stroke="black" stroke-dasharray="5,2" points="25,-271 25,-354.75 175,-354.75 175,-271 25,-271"/>
<text xml:space="preserve" text-anchor="middle" x="52.88" y="-339.35" font-family="Times New Roman,serif" font-size="12.00">Dropout</text>
</g>
<g id="clust11" class="cluster">
<title>cluster_12</title>
<polygon fill="none" stroke="black" stroke-dasharray="5,2" points="25,-179.25 25,-263 175,-263 175,-179.25 25,-179.25"/>
<text xml:space="preserve" text-anchor="middle" x="48" y="-247.6" font-family="Times New Roman,serif" font-size="12.00">ReLU</text>
</g>
<g id="clust12" class="cluster">
<title>cluster_13</title>
<polygon fill="none" stroke="black" stroke-dasharray="5,2" points="25,-16 25,-171.25 175,-171.25 175,-16 25,-16"/>
<text xml:space="preserve" text-anchor="middle" x="48.38" y="-155.85" font-family="Times New Roman,serif" font-size="12.00">Linear</text>
</g>
<!-- 0 -->
<g id="node1" class="node">
<title>0</title>
<polygon fill="lightyellow" stroke="none" points="150.5,-1162.5 49.5,-1162.5 49.5,-1127 150.5,-1127 150.5,-1162.5"/>
<polygon fill="none" stroke="black" points="49.5,-1127 49.5,-1162.5 111.25,-1162.5 111.25,-1127 49.5,-1127"/>
<text xml:space="preserve" text-anchor="start" x="54.5" y="-1148" font-family="Linux libertine" font-size="10.00">input&#45;tensor</text>
<text xml:space="preserve" text-anchor="start" x="63.88" y="-1135.25" font-family="Linux libertine" font-size="10.00">depth:0</text>
<polygon fill="none" stroke="black" points="111.25,-1127 111.25,-1162.5 150.5,-1162.5 150.5,-1127 111.25,-1127"/>
<text xml:space="preserve" text-anchor="start" x="116.25" y="-1141.62" font-family="Linux libertine" font-size="10.00">(1, 34)</text>
</g>
<!-- 1 -->
<g id="node2" class="node">
<title>1</title>
<polygon fill="aliceblue" stroke="none" points="167.12,-1058.5 32.88,-1058.5 32.88,-1013 167.12,-1013 167.12,-1058.5"/>
<polygon fill="none" stroke="black" points="32.88,-1013 32.88,-1058.5 75.88,-1058.5 75.88,-1013 32.88,-1013"/>
<text xml:space="preserve" text-anchor="start" x="42.38" y="-1039" font-family="Linux libertine" font-size="10.00">linear</text>
<text xml:space="preserve" text-anchor="start" x="37.88" y="-1026.25" font-family="Linux libertine" font-size="10.00">depth:3</text>
<polygon fill="none" stroke="black" points="75.88,-1035.75 75.88,-1058.5 119.62,-1058.5 119.62,-1035.75 75.88,-1035.75"/>
<text xml:space="preserve" text-anchor="start" x="85.38" y="-1044" font-family="Linux libertine" font-size="10.00">input:</text>
<polygon fill="none" stroke="black" points="119.62,-1035.75 119.62,-1058.5 167.12,-1058.5 167.12,-1035.75 119.62,-1035.75"/>
<text xml:space="preserve" text-anchor="start" x="127.25" y="-1044" font-family="Linux libertine" font-size="10.00">(1, 34) </text>
<polygon fill="none" stroke="black" points="75.88,-1013 75.88,-1035.75 119.62,-1035.75 119.62,-1013 75.88,-1013"/>
<text xml:space="preserve" text-anchor="start" x="80.88" y="-1021.25" font-family="Linux libertine" font-size="10.00">output: </text>
<polygon fill="none" stroke="black" points="119.62,-1013 119.62,-1035.75 167.12,-1035.75 167.12,-1013 119.62,-1013"/>
<text xml:space="preserve" text-anchor="start" x="124.62" y="-1021.25" font-family="Linux libertine" font-size="10.00">(1, 512) </text>
</g>
<!-- 0&#45;&gt;1 -->
<g id="edge1" class="edge">
<title>0&#45;&gt;1</title>
<path fill="none" stroke="black" d="M100,-1127.03C100,-1111.72 100,-1088.63 100,-1069.63"/>
<polygon fill="black" stroke="black" points="103.5,-1069.66 100,-1059.66 96.5,-1069.66 103.5,-1069.66"/>
</g>
<!-- 2 -->
<g id="node3" class="node">
<title>2</title>
<polygon fill="aliceblue" stroke="none" points="167.12,-966.75 32.88,-966.75 32.88,-921.25 167.12,-921.25 167.12,-966.75"/>
<polygon fill="none" stroke="black" points="32.88,-921.25 32.88,-966.75 75.88,-966.75 75.88,-921.25 32.88,-921.25"/>
<text xml:space="preserve" text-anchor="start" x="46.12" y="-947.25" font-family="Linux libertine" font-size="10.00">relu</text>
<text xml:space="preserve" text-anchor="start" x="37.88" y="-934.5" font-family="Linux libertine" font-size="10.00">depth:3</text>
<polygon fill="none" stroke="black" points="75.88,-944 75.88,-966.75 119.62,-966.75 119.62,-944 75.88,-944"/>
<text xml:space="preserve" text-anchor="start" x="85.38" y="-952.25" font-family="Linux libertine" font-size="10.00">input:</text>
<polygon fill="none" stroke="black" points="119.62,-944 119.62,-966.75 167.12,-966.75 167.12,-944 119.62,-944"/>
<text xml:space="preserve" text-anchor="start" x="124.62" y="-952.25" font-family="Linux libertine" font-size="10.00">(1, 512) </text>
<polygon fill="none" stroke="black" points="75.88,-921.25 75.88,-944 119.62,-944 119.62,-921.25 75.88,-921.25"/>
<text xml:space="preserve" text-anchor="start" x="80.88" y="-929.5" font-family="Linux libertine" font-size="10.00">output: </text>
<polygon fill="none" stroke="black" points="119.62,-921.25 119.62,-944 167.12,-944 167.12,-921.25 119.62,-921.25"/>
<text xml:space="preserve" text-anchor="start" x="124.62" y="-929.5" font-family="Linux libertine" font-size="10.00">(1, 512) </text>
</g>
<!-- 1&#45;&gt;2 -->
<g id="edge2" class="edge">
<title>1&#45;&gt;2</title>
<path fill="none" stroke="black" d="M100,-1013.02C100,-1002.44 100,-989.49 100,-977.74"/>
<polygon fill="black" stroke="black" points="103.5,-978.04 100,-968.04 96.5,-978.04 103.5,-978.04"/>
</g>
<!-- 3 -->
<g id="node4" class="node">
<title>3</title>
<polygon fill="aliceblue" stroke="none" points="176.12,-875 23.88,-875 23.88,-829.5 176.12,-829.5 176.12,-875"/>
<polygon fill="none" stroke="black" points="23.88,-829.5 23.88,-875 84.88,-875 84.88,-829.5 23.88,-829.5"/>
<text xml:space="preserve" text-anchor="start" x="28.88" y="-855.5" font-family="Linux libertine" font-size="10.00">batch_norm</text>
<text xml:space="preserve" text-anchor="start" x="37.88" y="-842.75" font-family="Linux libertine" font-size="10.00">depth:3</text>
<polygon fill="none" stroke="black" points="84.88,-852.25 84.88,-875 128.62,-875 128.62,-852.25 84.88,-852.25"/>
<text xml:space="preserve" text-anchor="start" x="94.38" y="-860.5" font-family="Linux libertine" font-size="10.00">input:</text>
<polygon fill="none" stroke="black" points="128.62,-852.25 128.62,-875 176.12,-875 176.12,-852.25 128.62,-852.25"/>
<text xml:space="preserve" text-anchor="start" x="133.62" y="-860.5" font-family="Linux libertine" font-size="10.00">(1, 512) </text>
<polygon fill="none" stroke="black" points="84.88,-829.5 84.88,-852.25 128.62,-852.25 128.62,-829.5 84.88,-829.5"/>
<text xml:space="preserve" text-anchor="start" x="89.88" y="-837.75" font-family="Linux libertine" font-size="10.00">output: </text>
<polygon fill="none" stroke="black" points="128.62,-829.5 128.62,-852.25 176.12,-852.25 176.12,-829.5 128.62,-829.5"/>
<text xml:space="preserve" text-anchor="start" x="133.62" y="-837.75" font-family="Linux libertine" font-size="10.00">(1, 512) </text>
</g>
<!-- 2&#45;&gt;3 -->
<g id="edge3" class="edge">
<title>2&#45;&gt;3</title>
<path fill="none" stroke="black" d="M100,-921.27C100,-910.69 100,-897.74 100,-885.99"/>
<polygon fill="black" stroke="black" points="103.5,-886.29 100,-876.29 96.5,-886.29 103.5,-886.29"/>
</g>
<!-- 4 -->
<g id="node5" class="node">
<title>4</title>
<polygon fill="aliceblue" stroke="none" points="167.12,-783.25 32.88,-783.25 32.88,-737.75 167.12,-737.75 167.12,-783.25"/>
<polygon fill="none" stroke="black" points="32.88,-737.75 32.88,-783.25 75.88,-783.25 75.88,-737.75 32.88,-737.75"/>
<text xml:space="preserve" text-anchor="start" x="42.38" y="-763.75" font-family="Linux libertine" font-size="10.00">linear</text>
<text xml:space="preserve" text-anchor="start" x="37.88" y="-751" font-family="Linux libertine" font-size="10.00">depth:3</text>
<polygon fill="none" stroke="black" points="75.88,-760.5 75.88,-783.25 119.62,-783.25 119.62,-760.5 75.88,-760.5"/>
<text xml:space="preserve" text-anchor="start" x="85.38" y="-768.75" font-family="Linux libertine" font-size="10.00">input:</text>
<polygon fill="none" stroke="black" points="119.62,-760.5 119.62,-783.25 167.12,-783.25 167.12,-760.5 119.62,-760.5"/>
<text xml:space="preserve" text-anchor="start" x="124.62" y="-768.75" font-family="Linux libertine" font-size="10.00">(1, 512) </text>
<polygon fill="none" stroke="black" points="75.88,-737.75 75.88,-760.5 119.62,-760.5 119.62,-737.75 75.88,-737.75"/>
<text xml:space="preserve" text-anchor="start" x="80.88" y="-746" font-family="Linux libertine" font-size="10.00">output: </text>
<polygon fill="none" stroke="black" points="119.62,-737.75 119.62,-760.5 167.12,-760.5 167.12,-737.75 119.62,-737.75"/>
<text xml:space="preserve" text-anchor="start" x="124.62" y="-746" font-family="Linux libertine" font-size="10.00">(1, 512) </text>
</g>
<!-- 3&#45;&gt;4 -->
<g id="edge4" class="edge">
<title>3&#45;&gt;4</title>
<path fill="none" stroke="black" d="M100,-829.52C100,-818.94 100,-805.99 100,-794.24"/>
<polygon fill="black" stroke="black" points="103.5,-794.54 100,-784.54 96.5,-794.54 103.5,-794.54"/>
</g>
<!-- 5 -->
<g id="node6" class="node">
<title>5</title>
<polygon fill="aliceblue" stroke="none" points="167.12,-691.5 32.88,-691.5 32.88,-646 167.12,-646 167.12,-691.5"/>
<polygon fill="none" stroke="black" points="32.88,-646 32.88,-691.5 75.88,-691.5 75.88,-646 32.88,-646"/>
<text xml:space="preserve" text-anchor="start" x="37.88" y="-672" font-family="Linux libertine" font-size="10.00">dropout</text>
<text xml:space="preserve" text-anchor="start" x="37.88" y="-659.25" font-family="Linux libertine" font-size="10.00">depth:3</text>
<polygon fill="none" stroke="black" points="75.88,-668.75 75.88,-691.5 119.62,-691.5 119.62,-668.75 75.88,-668.75"/>
<text xml:space="preserve" text-anchor="start" x="85.38" y="-677" font-family="Linux libertine" font-size="10.00">input:</text>
<polygon fill="none" stroke="black" points="119.62,-668.75 119.62,-691.5 167.12,-691.5 167.12,-668.75 119.62,-668.75"/>
<text xml:space="preserve" text-anchor="start" x="124.62" y="-677" font-family="Linux libertine" font-size="10.00">(1, 512) </text>
<polygon fill="none" stroke="black" points="75.88,-646 75.88,-668.75 119.62,-668.75 119.62,-646 75.88,-646"/>
<text xml:space="preserve" text-anchor="start" x="80.88" y="-654.25" font-family="Linux libertine" font-size="10.00">output: </text>
<polygon fill="none" stroke="black" points="119.62,-646 119.62,-668.75 167.12,-668.75 167.12,-646 119.62,-646"/>
<text xml:space="preserve" text-anchor="start" x="124.62" y="-654.25" font-family="Linux libertine" font-size="10.00">(1, 512) </text>
</g>
<!-- 4&#45;&gt;5 -->
<g id="edge5" class="edge">
<title>4&#45;&gt;5</title>
<path fill="none" stroke="black" d="M100,-737.77C100,-727.19 100,-714.24 100,-702.49"/>
<polygon fill="black" stroke="black" points="103.5,-702.79 100,-692.79 96.5,-702.79 103.5,-702.79"/>
</g>
<!-- 6 -->
<g id="node7" class="node">
<title>6</title>
<polygon fill="aliceblue" stroke="none" points="167.12,-599.75 32.88,-599.75 32.88,-554.25 167.12,-554.25 167.12,-599.75"/>
<polygon fill="none" stroke="black" points="32.88,-554.25 32.88,-599.75 75.88,-599.75 75.88,-554.25 32.88,-554.25"/>
<text xml:space="preserve" text-anchor="start" x="46.12" y="-580.25" font-family="Linux libertine" font-size="10.00">relu</text>
<text xml:space="preserve" text-anchor="start" x="37.88" y="-567.5" font-family="Linux libertine" font-size="10.00">depth:3</text>
<polygon fill="none" stroke="black" points="75.88,-577 75.88,-599.75 119.62,-599.75 119.62,-577 75.88,-577"/>
<text xml:space="preserve" text-anchor="start" x="85.38" y="-585.25" font-family="Linux libertine" font-size="10.00">input:</text>
<polygon fill="none" stroke="black" points="119.62,-577 119.62,-599.75 167.12,-599.75 167.12,-577 119.62,-577"/>
<text xml:space="preserve" text-anchor="start" x="124.62" y="-585.25" font-family="Linux libertine" font-size="10.00">(1, 512) </text>
<polygon fill="none" stroke="black" points="75.88,-554.25 75.88,-577 119.62,-577 119.62,-554.25 75.88,-554.25"/>
<text xml:space="preserve" text-anchor="start" x="80.88" y="-562.5" font-family="Linux libertine" font-size="10.00">output: </text>
<polygon fill="none" stroke="black" points="119.62,-554.25 119.62,-577 167.12,-577 167.12,-554.25 119.62,-554.25"/>
<text xml:space="preserve" text-anchor="start" x="124.62" y="-562.5" font-family="Linux libertine" font-size="10.00">(1, 512) </text>
</g>
<!-- 5&#45;&gt;6 -->
<g id="edge6" class="edge">
<title>5&#45;&gt;6</title>
<path fill="none" stroke="black" d="M100,-646.02C100,-635.44 100,-622.49 100,-610.74"/>
<polygon fill="black" stroke="black" points="103.5,-611.04 100,-601.04 96.5,-611.04 103.5,-611.04"/>
</g>
<!-- 7 -->
<g id="node8" class="node">
<title>7</title>
<polygon fill="aliceblue" stroke="none" points="176.12,-508 23.88,-508 23.88,-462.5 176.12,-462.5 176.12,-508"/>
<polygon fill="none" stroke="black" points="23.88,-462.5 23.88,-508 84.88,-508 84.88,-462.5 23.88,-462.5"/>
<text xml:space="preserve" text-anchor="start" x="28.88" y="-488.5" font-family="Linux libertine" font-size="10.00">batch_norm</text>
<text xml:space="preserve" text-anchor="start" x="37.88" y="-475.75" font-family="Linux libertine" font-size="10.00">depth:3</text>
<polygon fill="none" stroke="black" points="84.88,-485.25 84.88,-508 128.62,-508 128.62,-485.25 84.88,-485.25"/>
<text xml:space="preserve" text-anchor="start" x="94.38" y="-493.5" font-family="Linux libertine" font-size="10.00">input:</text>
<polygon fill="none" stroke="black" points="128.62,-485.25 128.62,-508 176.12,-508 176.12,-485.25 128.62,-485.25"/>
<text xml:space="preserve" text-anchor="start" x="133.62" y="-493.5" font-family="Linux libertine" font-size="10.00">(1, 512) </text>
<polygon fill="none" stroke="black" points="84.88,-462.5 84.88,-485.25 128.62,-485.25 128.62,-462.5 84.88,-462.5"/>
<text xml:space="preserve" text-anchor="start" x="89.88" y="-470.75" font-family="Linux libertine" font-size="10.00">output: </text>
<polygon fill="none" stroke="black" points="128.62,-462.5 128.62,-485.25 176.12,-485.25 176.12,-462.5 128.62,-462.5"/>
<text xml:space="preserve" text-anchor="start" x="133.62" y="-470.75" font-family="Linux libertine" font-size="10.00">(1, 512) </text>
</g>
<!-- 6&#45;&gt;7 -->
<g id="edge7" class="edge">
<title>6&#45;&gt;7</title>
<path fill="none" stroke="black" d="M100,-554.27C100,-543.69 100,-530.74 100,-518.99"/>
<polygon fill="black" stroke="black" points="103.5,-519.29 100,-509.29 96.5,-519.29 103.5,-519.29"/>
</g>
<!-- 8 -->
<g id="node9" class="node">
<title>8</title>
<polygon fill="aliceblue" stroke="none" points="167.12,-416.25 32.88,-416.25 32.88,-370.75 167.12,-370.75 167.12,-416.25"/>
<polygon fill="none" stroke="black" points="32.88,-370.75 32.88,-416.25 75.88,-416.25 75.88,-370.75 32.88,-370.75"/>
<text xml:space="preserve" text-anchor="start" x="42.38" y="-396.75" font-family="Linux libertine" font-size="10.00">linear</text>
<text xml:space="preserve" text-anchor="start" x="37.88" y="-384" font-family="Linux libertine" font-size="10.00">depth:3</text>
<polygon fill="none" stroke="black" points="75.88,-393.5 75.88,-416.25 119.62,-416.25 119.62,-393.5 75.88,-393.5"/>
<text xml:space="preserve" text-anchor="start" x="85.38" y="-401.75" font-family="Linux libertine" font-size="10.00">input:</text>
<polygon fill="none" stroke="black" points="119.62,-393.5 119.62,-416.25 167.12,-416.25 167.12,-393.5 119.62,-393.5"/>
<text xml:space="preserve" text-anchor="start" x="124.62" y="-401.75" font-family="Linux libertine" font-size="10.00">(1, 512) </text>
<polygon fill="none" stroke="black" points="75.88,-370.75 75.88,-393.5 119.62,-393.5 119.62,-370.75 75.88,-370.75"/>
<text xml:space="preserve" text-anchor="start" x="80.88" y="-379" font-family="Linux libertine" font-size="10.00">output: </text>
<polygon fill="none" stroke="black" points="119.62,-370.75 119.62,-393.5 167.12,-393.5 167.12,-370.75 119.62,-370.75"/>
<text xml:space="preserve" text-anchor="start" x="124.62" y="-379" font-family="Linux libertine" font-size="10.00">(1, 512) </text>
</g>
<!-- 7&#45;&gt;8 -->
<g id="edge8" class="edge">
<title>7&#45;&gt;8</title>
<path fill="none" stroke="black" d="M100,-462.52C100,-451.94 100,-438.99 100,-427.24"/>
<polygon fill="black" stroke="black" points="103.5,-427.54 100,-417.54 96.5,-427.54 103.5,-427.54"/>
</g>
<!-- 9 -->
<g id="node10" class="node">
<title>9</title>
<polygon fill="aliceblue" stroke="none" points="167.12,-324.5 32.88,-324.5 32.88,-279 167.12,-279 167.12,-324.5"/>
<polygon fill="none" stroke="black" points="32.88,-279 32.88,-324.5 75.88,-324.5 75.88,-279 32.88,-279"/>
<text xml:space="preserve" text-anchor="start" x="37.88" y="-305" font-family="Linux libertine" font-size="10.00">dropout</text>
<text xml:space="preserve" text-anchor="start" x="37.88" y="-292.25" font-family="Linux libertine" font-size="10.00">depth:3</text>
<polygon fill="none" stroke="black" points="75.88,-301.75 75.88,-324.5 119.62,-324.5 119.62,-301.75 75.88,-301.75"/>
<text xml:space="preserve" text-anchor="start" x="85.38" y="-310" font-family="Linux libertine" font-size="10.00">input:</text>
<polygon fill="none" stroke="black" points="119.62,-301.75 119.62,-324.5 167.12,-324.5 167.12,-301.75 119.62,-301.75"/>
<text xml:space="preserve" text-anchor="start" x="124.62" y="-310" font-family="Linux libertine" font-size="10.00">(1, 512) </text>
<polygon fill="none" stroke="black" points="75.88,-279 75.88,-301.75 119.62,-301.75 119.62,-279 75.88,-279"/>
<text xml:space="preserve" text-anchor="start" x="80.88" y="-287.25" font-family="Linux libertine" font-size="10.00">output: </text>
<polygon fill="none" stroke="black" points="119.62,-279 119.62,-301.75 167.12,-301.75 167.12,-279 119.62,-279"/>
<text xml:space="preserve" text-anchor="start" x="124.62" y="-287.25" font-family="Linux libertine" font-size="10.00">(1, 512) </text>
</g>
<!-- 8&#45;&gt;9 -->
<g id="edge9" class="edge">
<title>8&#45;&gt;9</title>
<path fill="none" stroke="black" d="M100,-370.77C100,-360.19 100,-347.24 100,-335.49"/>
<polygon fill="black" stroke="black" points="103.5,-335.79 100,-325.79 96.5,-335.79 103.5,-335.79"/>
</g>
<!-- 10 -->
<g id="node11" class="node">
<title>10</title>
<polygon fill="aliceblue" stroke="none" points="167.12,-232.75 32.88,-232.75 32.88,-187.25 167.12,-187.25 167.12,-232.75"/>
<polygon fill="none" stroke="black" points="32.88,-187.25 32.88,-232.75 75.88,-232.75 75.88,-187.25 32.88,-187.25"/>
<text xml:space="preserve" text-anchor="start" x="46.12" y="-213.25" font-family="Linux libertine" font-size="10.00">relu</text>
<text xml:space="preserve" text-anchor="start" x="37.88" y="-200.5" font-family="Linux libertine" font-size="10.00">depth:3</text>
<polygon fill="none" stroke="black" points="75.88,-210 75.88,-232.75 119.62,-232.75 119.62,-210 75.88,-210"/>
<text xml:space="preserve" text-anchor="start" x="85.38" y="-218.25" font-family="Linux libertine" font-size="10.00">input:</text>
<polygon fill="none" stroke="black" points="119.62,-210 119.62,-232.75 167.12,-232.75 167.12,-210 119.62,-210"/>
<text xml:space="preserve" text-anchor="start" x="124.62" y="-218.25" font-family="Linux libertine" font-size="10.00">(1, 512) </text>
<polygon fill="none" stroke="black" points="75.88,-187.25 75.88,-210 119.62,-210 119.62,-187.25 75.88,-187.25"/>
<text xml:space="preserve" text-anchor="start" x="80.88" y="-195.5" font-family="Linux libertine" font-size="10.00">output: </text>
<polygon fill="none" stroke="black" points="119.62,-187.25 119.62,-210 167.12,-210 167.12,-187.25 119.62,-187.25"/>
<text xml:space="preserve" text-anchor="start" x="124.62" y="-195.5" font-family="Linux libertine" font-size="10.00">(1, 512) </text>
</g>
<!-- 9&#45;&gt;10 -->
<g id="edge10" class="edge">
<title>9&#45;&gt;10</title>
<path fill="none" stroke="black" d="M100,-279.02C100,-268.44 100,-255.49 100,-243.74"/>
<polygon fill="black" stroke="black" points="103.5,-244.04 100,-234.04 96.5,-244.04 103.5,-244.04"/>
</g>
<!-- 11 -->
<g id="node12" class="node">
<title>11</title>
<polygon fill="aliceblue" stroke="none" points="167.12,-141 32.88,-141 32.88,-95.5 167.12,-95.5 167.12,-141"/>
<polygon fill="none" stroke="black" points="32.88,-95.5 32.88,-141 75.88,-141 75.88,-95.5 32.88,-95.5"/>
<text xml:space="preserve" text-anchor="start" x="42.38" y="-121.5" font-family="Linux libertine" font-size="10.00">linear</text>
<text xml:space="preserve" text-anchor="start" x="37.88" y="-108.75" font-family="Linux libertine" font-size="10.00">depth:3</text>
<polygon fill="none" stroke="black" points="75.88,-118.25 75.88,-141 119.62,-141 119.62,-118.25 75.88,-118.25"/>
<text xml:space="preserve" text-anchor="start" x="85.38" y="-126.5" font-family="Linux libertine" font-size="10.00">input:</text>
<polygon fill="none" stroke="black" points="119.62,-118.25 119.62,-141 167.12,-141 167.12,-118.25 119.62,-118.25"/>
<text xml:space="preserve" text-anchor="start" x="124.62" y="-126.5" font-family="Linux libertine" font-size="10.00">(1, 512) </text>
<polygon fill="none" stroke="black" points="75.88,-95.5 75.88,-118.25 119.62,-118.25 119.62,-95.5 75.88,-95.5"/>
<text xml:space="preserve" text-anchor="start" x="80.88" y="-103.75" font-family="Linux libertine" font-size="10.00">output: </text>
<polygon fill="none" stroke="black" points="119.62,-95.5 119.62,-118.25 167.12,-118.25 167.12,-95.5 119.62,-95.5"/>
<text xml:space="preserve" text-anchor="start" x="127.25" y="-103.75" font-family="Linux libertine" font-size="10.00">(1, 51) </text>
</g>
<!-- 10&#45;&gt;11 -->
<g id="edge11" class="edge">
<title>10&#45;&gt;11</title>
<path fill="none" stroke="black" d="M100,-187.27C100,-176.69 100,-163.74 100,-151.99"/>
<polygon fill="black" stroke="black" points="103.5,-152.29 100,-142.29 96.5,-152.29 103.5,-152.29"/>
</g>
<!-- 12 -->
<g id="node13" class="node">
<title>12</title>
<polygon fill="lightyellow" stroke="none" points="153.5,-59.5 46.5,-59.5 46.5,-24 153.5,-24 153.5,-59.5"/>
<polygon fill="none" stroke="black" points="46.5,-24 46.5,-59.5 114.25,-59.5 114.25,-24 46.5,-24"/>
<text xml:space="preserve" text-anchor="start" x="51.5" y="-45" font-family="Linux libertine" font-size="10.00">output&#45;tensor</text>
<text xml:space="preserve" text-anchor="start" x="63.88" y="-32.25" font-family="Linux libertine" font-size="10.00">depth:0</text>
<polygon fill="none" stroke="black" points="114.25,-24 114.25,-59.5 153.5,-59.5 153.5,-24 114.25,-24"/>
<text xml:space="preserve" text-anchor="start" x="119.25" y="-38.62" font-family="Linux libertine" font-size="10.00">(1, 51)</text>
</g>
<!-- 11&#45;&gt;12 -->
<g id="edge12" class="edge">
<title>11&#45;&gt;12</title>
<path fill="none" stroke="black" d="M100,-95.7C100,-87.85 100,-78.85 100,-70.54"/>
<polygon fill="black" stroke="black" points="103.5,-70.56 100,-60.56 96.5,-70.56 103.5,-70.56"/>
</g>
</g>
</svg>
